<svg width="305" height="92" viewBox="0 0 305 92" fill="none" xmlns="http://www.w3.org/2000/svg">
<path d="M20.3333 17.6667H57M3 17L5.66667 19.6667L12.3333 13M3 37L5.66667 39.6667L12.3333 33M3 57L5.66667 59.6667L12.3333 53M20.3333 37.6667H57M20.3333 57.6667H57" stroke="#9747FF" stroke-width="5" stroke-linecap="round" stroke-linejoin="round"/>
<path d="M105.062 44.1875C105.229 43.9375 105.438 43.7917 105.688 43.75C105.979 43.6667 106.208 43.6875 106.375 43.8125C106.542 43.9375 106.625 44.1458 106.625 44.4375C106.667 44.7292 106.562 45.125 106.312 45.625C105.479 47.2083 104.375 48.9167 103 50.75C101.667 52.5833 100.25 54.3125 98.75 55.9375C97.25 57.5208 95.7917 58.8333 94.375 59.875C92.9583 60.9167 91.7708 61.4375 90.8125 61.4375C89.4375 61.4375 88.2917 61.1667 87.375 60.625C86.4583 60.0833 85.7292 59.4167 85.1875 58.625C84.6875 57.8333 84.3333 56.9792 84.125 56.0625C83.9167 55.1042 83.8542 54.2292 83.9375 53.4375C83.9792 52.7708 84.125 51.5833 84.375 49.875C84.625 48.125 84.9583 46.125 85.375 43.875C85.7917 41.5833 86.25 39.1458 86.75 36.5625C87.2917 33.9375 87.8542 31.4167 88.4375 29C87.7292 29.0833 87.0208 29.1667 86.3125 29.25C85.6042 29.3333 84.9583 29.375 84.375 29.375C83.0417 29.375 81.7917 29.2292 80.625 28.9375C79.4167 28.6042 78.5208 28.2917 77.9375 28C77.6042 27.8333 77.4583 27.6042 77.5 27.3125C77.5417 26.9792 77.6667 26.6667 77.875 26.375C78.0833 26.0417 78.3542 25.7708 78.6875 25.5625C78.9792 25.3125 79.25 25.1875 79.5 25.1875C80.2917 25.2708 81.1458 25.3542 82.0625 25.4375C82.9792 25.4792 83.9792 25.4792 85.0625 25.4375C85.8542 25.3958 86.6042 25.3333 87.3125 25.25C88.0625 25.1667 88.7917 25.0625 89.5 24.9375C90.0417 22.9375 90.5625 21.2083 91.0625 19.75C91.6042 18.25 92.0833 17.2083 92.5 16.625C92.625 16.4167 92.8958 16.25 93.3125 16.125C93.7708 15.9583 94.25 15.8542 94.75 15.8125C95.25 15.7292 95.7292 15.7292 96.1875 15.8125C96.6458 15.8542 96.9792 16 97.1875 16.25C97.3958 16.5833 97.4792 17.4375 97.4375 18.8125C97.3958 20.1875 97.1667 21.9375 96.75 24.0625C98.5 24.0625 100.042 24.1667 101.375 24.375C102.75 24.5417 103.917 24.75 104.875 25C105.833 25.2083 106.604 25.4375 107.188 25.6875C107.771 25.8958 108.208 26.0417 108.5 26.125C108.792 26.2083 108.938 26.4167 108.938 26.75C108.979 27.0833 108.917 27.4375 108.75 27.8125C108.625 28.1458 108.396 28.4375 108.062 28.6875C107.729 28.9375 107.354 29.0208 106.938 28.9375C106.521 28.8958 106.042 28.8125 105.5 28.6875C105 28.5625 104.375 28.4583 103.625 28.375C102.917 28.2917 102.062 28.2083 101.062 28.125C100.062 28.0417 98.8958 28 97.5625 28C97.3125 28 97.0208 28.0208 96.6875 28.0625C96.3958 28.0625 96.0833 28.0625 95.75 28.0625C95.5833 28.7292 95.4167 29.3958 95.25 30.0625C95.125 30.6875 94.9375 31.3542 94.6875 32.0625C94.1458 33.7292 93.5208 35.5417 92.8125 37.5C92.1875 39.2083 91.4375 41.1667 90.5625 43.375C89.6875 45.5833 88.7083 47.9375 87.625 50.4375C87.375 52.2292 87.3958 53.6042 87.6875 54.5625C88.0208 55.4792 88.4167 56.1458 88.875 56.5625C89.4167 57.0208 90.0833 57.2708 90.875 57.3125C91.5 57.3958 92.25 57.1875 93.125 56.6875C94.0417 56.1458 94.9792 55.4375 95.9375 54.5625C96.8958 53.6875 97.8542 52.7292 98.8125 51.6875C99.8125 50.6458 100.729 49.625 101.562 48.625C102.396 47.625 103.125 46.7292 103.75 45.9375C104.375 45.1042 104.812 44.5208 105.062 44.1875ZM119.812 50.0625C119.396 51.6458 118.833 53.125 118.125 54.5C117.417 55.875 116.562 57.0625 115.562 58.0625C114.604 59.0625 113.5 59.8333 112.25 60.375C111.042 60.9583 109.708 61.25 108.25 61.25C106.542 61.25 105.188 60.875 104.188 60.125C103.229 59.4167 102.5 58.5208 102 57.4375C101.542 56.3542 101.271 55.1667 101.188 53.875C101.062 52.5833 101 51.375 101 50.25C101 49.4583 101.104 48.5833 101.312 47.625C101.479 46.6667 101.729 45.6875 102.062 44.6875C102.396 43.6875 102.812 42.6875 103.312 41.6875C103.854 40.6875 104.479 39.7708 105.188 38.9375C105.438 38.2292 105.812 37.6042 106.312 37.0625C106.854 36.5208 107.458 36.0833 108.125 35.75C108.833 35.375 109.583 35.1042 110.375 34.9375C111.167 34.7292 111.938 34.625 112.688 34.625C112.812 34.625 112.917 34.6458 113 34.6875C113.125 34.7292 113.25 34.7708 113.375 34.8125C113.917 34.8542 114.583 35.0625 115.375 35.4375C116.208 35.8125 117 36.375 117.75 37.125C118.542 37.875 119.208 38.8333 119.75 40C120.292 41.125 120.562 42.5 120.562 44.125C120.562 44.4583 120.542 44.875 120.5 45.375C120.458 45.8333 120.417 46.2292 120.375 46.5625C121.333 46.1875 122.333 45.7292 123.375 45.1875C124.417 44.6458 125.417 44.0833 126.375 43.5C127.375 42.875 128.292 42.25 129.125 41.625C129.958 41 130.625 40.4375 131.125 39.9375C131.542 39.5625 131.896 39.3542 132.188 39.3125C132.479 39.2708 132.688 39.3542 132.812 39.5625C132.938 39.7708 132.958 40.0625 132.875 40.4375C132.792 40.8125 132.562 41.2292 132.188 41.6875C131.979 41.9375 131.438 42.4375 130.562 43.1875C129.729 43.9375 128.729 44.75 127.562 45.625C126.396 46.5 125.125 47.3542 123.75 48.1875C122.375 49.0208 121.062 49.6458 119.812 50.0625ZM109.25 40.5625C109.125 40.9375 109.062 41.3333 109.062 41.75C109.062 42.4167 109.104 43.125 109.188 43.875C109.271 44.5833 109.479 45.2292 109.812 45.8125C110.146 46.3958 110.667 46.8958 111.375 47.3125C112.125 47.6875 113.146 47.875 114.438 47.875C114.646 47.875 114.854 47.875 115.062 47.875C115.271 47.8333 115.479 47.7917 115.688 47.75C115.812 47.2083 115.917 46.7292 116 46.3125C116.125 45.8542 116.188 45.4583 116.188 45.125C116.271 44.3333 116.271 43.5208 116.188 42.6875C116.104 41.8542 115.938 41.1042 115.688 40.4375C115.479 39.7292 115.188 39.1667 114.812 38.75C114.479 38.2917 114.062 38.0625 113.562 38.0625C112.771 38.0625 112 38.2917 111.25 38.75C110.542 39.1667 109.875 39.7708 109.25 40.5625ZM105.25 51.5625C105.25 52.3125 105.292 53.0625 105.375 53.8125C105.458 54.5208 105.625 55.1667 105.875 55.75C106.125 56.2917 106.458 56.75 106.875 57.125C107.292 57.4583 107.833 57.625 108.5 57.625C109.25 57.625 109.938 57.4583 110.562 57.125C111.188 56.75 111.75 56.2917 112.25 55.75C112.75 55.1667 113.188 54.5208 113.562 53.8125C113.979 53.0625 114.333 52.2917 114.625 51.5C114.333 51.5417 114.042 51.5833 113.75 51.625C113.5 51.625 113.208 51.625 112.875 51.625C111.292 51.625 109.917 51.1667 108.75 50.25C107.625 49.2917 106.75 48.0833 106.125 46.625C105.875 47.5 105.667 48.3542 105.5 49.1875C105.333 50.0208 105.25 50.8125 105.25 51.5625ZM145.875 41.9375C144.708 41.8958 143.229 41.8958 141.438 41.9375C139.646 41.9375 137.875 41.9583 136.125 42C134.958 42.0417 133.771 42.125 132.562 42.25C131.521 42.3333 130.375 42.4583 129.125 42.625C127.875 42.7917 126.688 43.0417 125.562 43.375C125.521 43.0417 125.521 42.7292 125.562 42.4375C125.604 42.1042 125.667 41.7917 125.75 41.5C125.833 41.1667 125.917 40.8542 126 40.5625C126.167 40.1458 126.396 39.7083 126.688 39.25C127.021 38.7917 127.312 38.5 127.562 38.375C127.771 38.2917 128.188 38.2083 128.812 38.125C129.479 38.0417 130.25 37.9792 131.125 37.9375C132.042 37.8542 133.042 37.7917 134.125 37.75C135.25 37.7083 136.354 37.6875 137.438 37.6875C139.646 37.6458 141.479 37.6667 142.938 37.75C144.396 37.7917 145.792 37.875 147.125 38C147.708 38.0833 148.042 38.2708 148.125 38.5625C148.25 38.8542 148.188 39.375 147.938 40.125C147.688 40.8333 147.417 41.3333 147.125 41.625C146.833 41.875 146.417 41.9792 145.875 41.9375ZM169 48.0625C168.792 49.3542 168.583 50.5833 168.375 51.75C168.208 52.9167 168.104 53.8542 168.062 54.5625C168.021 55.6042 168.208 56.3542 168.625 56.8125C169.042 57.2708 169.5 57.5 170 57.5C170.583 57.5 171.292 57.2083 172.125 56.625C173 56.0417 173.917 55.3125 174.875 54.4375C175.833 53.5625 176.792 52.6042 177.75 51.5625C178.708 50.5208 179.583 49.5417 180.375 48.625C181.208 47.6667 181.896 46.8333 182.438 46.125C183.021 45.4167 183.417 44.9583 183.625 44.75C183.875 44.5 184.125 44.3542 184.375 44.3125C184.667 44.2708 184.896 44.3125 185.062 44.4375C185.229 44.5625 185.312 44.7917 185.312 45.125C185.312 45.4583 185.146 45.875 184.812 46.375C184.312 47.1667 183.667 48.1042 182.875 49.1875C182.083 50.2292 181.208 51.3125 180.25 52.4375C179.292 53.5625 178.271 54.6667 177.188 55.75C176.146 56.8333 175.083 57.7917 174 58.625C172.958 59.4583 171.938 60.125 170.938 60.625C169.979 61.1667 169.104 61.4375 168.312 61.4375C167.729 61.4375 167.167 61.2708 166.625 60.9375C166.125 60.6042 165.667 60.1667 165.25 59.625C164.833 59.0833 164.5 58.4792 164.25 57.8125C164.042 57.1458 163.958 56.4792 164 55.8125C164.042 55.5208 164.104 55.0208 164.188 54.3125C162.438 56.2708 160.667 57.8333 158.875 59C157.125 60.125 155.438 60.6875 153.812 60.6875C153.229 60.6875 152.604 60.5417 151.938 60.25C151.271 59.9583 150.667 59.4792 150.125 58.8125C149.625 58.1458 149.208 57.2708 148.875 56.1875C148.542 55.1042 148.417 53.7917 148.5 52.25C148.625 49.8333 149.104 47.5417 149.938 45.375C150.771 43.2083 151.812 41.3333 153.062 39.75C154.354 38.125 155.792 36.8542 157.375 35.9375C159 34.9792 160.625 34.5 162.25 34.5C162.958 34.5 163.604 34.6875 164.188 35.0625C164.771 35.3958 165.271 35.8542 165.688 36.4375C166.104 36.9792 166.438 37.5833 166.688 38.25C166.979 38.9167 167.188 39.5417 167.312 40.125C167.604 38.9167 167.875 37.7292 168.125 36.5625C168.375 35.3958 168.625 34.2917 168.875 33.25C169.292 31.7083 169.729 30.0417 170.188 28.25C170.604 26.7083 171.083 24.9375 171.625 22.9375C172.167 20.9375 172.771 18.8333 173.438 16.625C173.854 16.2917 174.25 16.0417 174.625 15.875C175 15.7083 175.354 15.5833 175.688 15.5C176.062 15.375 176.417 15.3125 176.75 15.3125C177.167 15.3125 177.542 15.375 177.875 15.5C178.208 15.5833 178.479 15.8542 178.688 16.3125C178.938 16.7292 179.104 17.375 179.188 18.25C179.271 19.125 179.271 20.3125 179.188 21.8125C179.104 23.6458 178.771 25.6458 178.188 27.8125C177.646 29.9792 176.917 32.2292 176 34.5625C175.083 36.8542 174.021 39.1667 172.812 41.5C171.646 43.7917 170.375 45.9792 169 48.0625ZM165.312 48.875C165.479 48.0833 165.625 47.2917 165.75 46.5C165.917 45.7083 166.104 44.8958 166.312 44.0625C166.229 44.1042 166.146 44.1458 166.062 44.1875C166.021 44.2292 165.958 44.2708 165.875 44.3125C165.417 44.5208 165.104 44.5208 164.938 44.3125C164.771 44.0625 164.688 43.6875 164.688 43.1875C164.688 42.9375 164.667 42.5 164.625 41.875C164.583 41.2083 164.458 40.5417 164.25 39.875C164.083 39.1667 163.812 38.5625 163.438 38.0625C163.062 37.5208 162.542 37.25 161.875 37.25C160.917 37.25 159.938 37.75 158.938 38.75C157.938 39.7083 157 40.8958 156.125 42.3125C155.25 43.6875 154.521 45.1667 153.938 46.75C153.354 48.3333 153.021 49.75 152.938 51C152.854 53 153.104 54.4375 153.688 55.3125C154.271 56.1875 155.062 56.625 156.062 56.625C156.812 56.625 157.625 56.3333 158.5 55.75C159.417 55.1667 160.292 54.4583 161.125 53.625C162 52.7917 162.792 51.9375 163.5 51.0625C164.25 50.1875 164.854 49.4583 165.312 48.875ZM198.562 50.0625C198.146 51.6458 197.583 53.125 196.875 54.5C196.167 55.875 195.312 57.0625 194.312 58.0625C193.354 59.0625 192.25 59.8333 191 60.375C189.792 60.9583 188.458 61.25 187 61.25C185.292 61.25 183.938 60.875 182.938 60.125C181.979 59.4167 181.25 58.5208 180.75 57.4375C180.292 56.3542 180.021 55.1667 179.938 53.875C179.812 52.5833 179.75 51.375 179.75 50.25C179.75 49.4583 179.854 48.5833 180.062 47.625C180.229 46.6667 180.479 45.6875 180.812 44.6875C181.146 43.6875 181.562 42.6875 182.062 41.6875C182.604 40.6875 183.229 39.7708 183.938 38.9375C184.188 38.2292 184.562 37.6042 185.062 37.0625C185.604 36.5208 186.208 36.0833 186.875 35.75C187.583 35.375 188.333 35.1042 189.125 34.9375C189.917 34.7292 190.688 34.625 191.438 34.625C191.562 34.625 191.667 34.6458 191.75 34.6875C191.875 34.7292 192 34.7708 192.125 34.8125C192.667 34.8542 193.333 35.0625 194.125 35.4375C194.958 35.8125 195.75 36.375 196.5 37.125C197.292 37.875 197.958 38.8333 198.5 40C199.042 41.125 199.312 42.5 199.312 44.125C199.312 44.4583 199.292 44.875 199.25 45.375C199.208 45.8333 199.167 46.2292 199.125 46.5625C200.083 46.1875 201.083 45.7292 202.125 45.1875C203.167 44.6458 204.167 44.0833 205.125 43.5C206.125 42.875 207.042 42.25 207.875 41.625C208.708 41 209.375 40.4375 209.875 39.9375C210.292 39.5625 210.646 39.3542 210.938 39.3125C211.229 39.2708 211.438 39.3542 211.562 39.5625C211.688 39.7708 211.708 40.0625 211.625 40.4375C211.542 40.8125 211.312 41.2292 210.938 41.6875C210.729 41.9375 210.188 42.4375 209.312 43.1875C208.479 43.9375 207.479 44.75 206.312 45.625C205.146 46.5 203.875 47.3542 202.5 48.1875C201.125 49.0208 199.812 49.6458 198.562 50.0625ZM188 40.5625C187.875 40.9375 187.812 41.3333 187.812 41.75C187.812 42.4167 187.854 43.125 187.938 43.875C188.021 44.5833 188.229 45.2292 188.562 45.8125C188.896 46.3958 189.417 46.8958 190.125 47.3125C190.875 47.6875 191.896 47.875 193.188 47.875C193.396 47.875 193.604 47.875 193.812 47.875C194.021 47.8333 194.229 47.7917 194.438 47.75C194.562 47.2083 194.667 46.7292 194.75 46.3125C194.875 45.8542 194.938 45.4583 194.938 45.125C195.021 44.3333 195.021 43.5208 194.938 42.6875C194.854 41.8542 194.688 41.1042 194.438 40.4375C194.229 39.7292 193.938 39.1667 193.562 38.75C193.229 38.2917 192.812 38.0625 192.312 38.0625C191.521 38.0625 190.75 38.2917 190 38.75C189.292 39.1667 188.625 39.7708 188 40.5625ZM184 51.5625C184 52.3125 184.042 53.0625 184.125 53.8125C184.208 54.5208 184.375 55.1667 184.625 55.75C184.875 56.2917 185.208 56.75 185.625 57.125C186.042 57.4583 186.583 57.625 187.25 57.625C188 57.625 188.688 57.4583 189.312 57.125C189.938 56.75 190.5 56.2917 191 55.75C191.5 55.1667 191.938 54.5208 192.312 53.8125C192.729 53.0625 193.083 52.2917 193.375 51.5C193.083 51.5417 192.792 51.5833 192.5 51.625C192.25 51.625 191.958 51.625 191.625 51.625C190.042 51.625 188.667 51.1667 187.5 50.25C186.375 49.2917 185.5 48.0833 184.875 46.625C184.625 47.5 184.417 48.3542 184.25 49.1875C184.083 50.0208 184 50.8125 184 51.5625ZM222.25 59C224.083 51.2917 225.542 45.1042 226.625 40.4375C227.75 35.7708 228.604 32.2083 229.188 29.75C229.854 26.8333 230.312 24.8125 230.562 23.6875C230.688 22.8958 230.792 22.125 230.875 21.375C230.958 20.7083 231 20.0208 231 19.3125C231 18.6042 230.938 17.9583 230.812 17.375C231.146 17.1667 231.5 17 231.875 16.875C232.292 16.75 232.688 16.6458 233.062 16.5625C233.521 16.4375 233.979 16.3333 234.438 16.25C234.896 16.1667 235.312 16.125 235.688 16.125C236.021 16.125 236.333 16.1667 236.625 16.25C236.917 16.2917 237.104 16.4167 237.188 16.625C237.438 16.8333 237.542 17.25 237.5 17.875C237.5 18.5 237.458 19.1458 237.375 19.8125C237.208 20.6042 237.021 21.4583 236.812 22.375C236.312 24.1667 235.625 26.75 234.75 30.125C234 33 232.979 36.9167 231.688 41.875C230.438 46.8333 228.854 53.0833 226.938 60.625C226.729 60.8333 226.479 60.9792 226.188 61.0625C225.896 61.1458 225.625 61.1875 225.375 61.1875C225.083 61.1875 224.771 61.1667 224.438 61.125C224.146 61.0417 223.854 60.9167 223.562 60.75C223.312 60.5833 223.062 60.3542 222.812 60.0625C222.562 59.8125 222.375 59.4583 222.25 59ZM250.938 23.1875C250.812 23.6458 250.562 24.1042 250.188 24.5625C249.854 24.9792 249.458 25.3333 249 25.625C248.583 25.875 248.146 26.0417 247.688 26.125C247.229 26.2083 246.854 26.125 246.562 25.875C245.688 25.2083 245.229 24.5 245.188 23.75C245.146 22.9583 245.333 22.2292 245.75 21.5625C246.167 20.8542 246.688 20.2708 247.312 19.8125C247.938 19.3125 248.479 19.0208 248.938 18.9375C249.396 18.8542 249.771 18.9583 250.062 19.25C250.396 19.5 250.646 19.8542 250.812 20.3125C250.979 20.7292 251.062 21.2083 251.062 21.75C251.104 22.2917 251.062 22.7708 250.938 23.1875ZM242.312 36.5C242.521 36.25 242.917 36.0417 243.5 35.875C244.083 35.7083 244.688 35.5833 245.312 35.5C245.938 35.375 246.5 35.3125 247 35.3125C247.542 35.2708 247.854 35.2708 247.938 35.3125C247.979 35.3542 247.875 35.7917 247.625 36.625C247.375 37.4583 247.062 38.4375 246.688 39.5625C246.312 40.6875 245.917 41.8542 245.5 43.0625C245.083 44.2292 244.771 45.1875 244.562 45.9375C244.354 46.6875 244.104 47.5417 243.812 48.5C243.521 49.4167 243.25 50.3333 243 51.25C242.792 52.125 242.646 52.9583 242.562 53.75C242.479 54.5417 242.542 55.1458 242.75 55.5625C242.958 56.0625 243.188 56.4167 243.438 56.625C243.688 56.7917 243.958 56.875 244.25 56.875C245.083 56.875 246.125 56.4167 247.375 55.5C248.667 54.5833 249.958 53.5 251.25 52.25C252.583 50.9583 253.812 49.6667 254.938 48.375C256.062 47.0417 256.896 45.9792 257.438 45.1875C257.771 44.7708 258.104 44.5 258.438 44.375C258.812 44.25 259.104 44.2708 259.312 44.4375C259.562 44.6042 259.688 44.875 259.688 45.25C259.729 45.625 259.604 46.0625 259.312 46.5625C258.646 47.7292 257.667 49.125 256.375 50.75C255.083 52.3333 253.708 53.875 252.25 55.375C250.792 56.8333 249.354 58.0833 247.938 59.125C246.562 60.1667 245.438 60.7083 244.562 60.75C243.854 60.7917 243.146 60.6667 242.438 60.375C241.771 60.125 241.146 59.7708 240.562 59.3125C240.021 58.8125 239.562 58.25 239.188 57.625C238.812 56.9583 238.604 56.2708 238.562 55.5625C238.438 54.5208 238.438 53.1042 238.562 51.3125C238.688 49.4792 238.917 47.625 239.25 45.75C239.583 43.8333 240 42.0208 240.5 40.3125C241.042 38.6042 241.646 37.3333 242.312 36.5ZM263.562 57.875C263.812 58.0417 264.125 58.125 264.5 58.125C264.917 58.125 265.312 58.0417 265.688 57.875C266.104 57.7083 266.479 57.4792 266.812 57.1875C267.188 56.8958 267.458 56.5208 267.625 56.0625C267.792 55.6042 267.792 54.9583 267.625 54.125C267.458 53.25 267.188 52.3333 266.812 51.375C266.479 50.375 266.104 49.375 265.688 48.375C265.271 47.375 264.917 46.4583 264.625 45.625C264.375 45 264.167 44.4167 264 43.875C263.833 43.4167 263.667 42.9792 263.5 42.5625C263.375 42.1042 263.271 41.7917 263.188 41.625C262.979 41.9583 262.604 42.5 262.062 43.25C261.562 44 261 44.7917 260.375 45.625C259.792 46.4167 259.229 47.1667 258.688 47.875C258.146 48.5417 257.771 49 257.562 49.25C257.229 49.625 256.896 49.8542 256.562 49.9375C256.271 49.9792 256.021 49.9167 255.812 49.75C255.604 49.5417 255.479 49.2708 255.438 48.9375C255.438 48.5625 255.604 48.125 255.938 47.625C256.188 47.2917 256.562 46.7708 257.062 46.0625C257.562 45.3125 258.062 44.5625 258.562 43.8125C259.062 43.0208 259.521 42.3333 259.938 41.75C260.354 41.125 260.583 40.75 260.625 40.625C260.708 40.2917 260.583 39.8542 260.25 39.3125C259.958 38.7708 259.917 38.1458 260.125 37.4375C260.292 36.8542 260.667 36.1875 261.25 35.4375C261.833 34.6458 262.521 33.9375 263.312 33.3125C264.104 32.6875 264.917 32.2292 265.75 31.9375C266.583 31.6042 267.333 31.6042 268 31.9375C268.542 32.2708 268.979 32.6458 269.312 33.0625C269.646 33.4375 269.771 33.8333 269.688 34.25C269.604 34.4583 269.479 34.7292 269.312 35.0625C269.146 35.3958 268.896 35.8125 268.562 36.3125C268.229 36.7708 267.75 37.375 267.125 38.125C267.25 39.0833 267.417 39.9583 267.625 40.75C267.875 41.5417 268.104 42.2292 268.312 42.8125C268.562 43.5208 268.833 44.1667 269.125 44.75C269.5 45.5 269.896 46.2708 270.312 47.0625C270.729 47.8542 271.104 48.6458 271.438 49.4375C271.771 50.1875 272.042 50.8958 272.25 51.5625C272.458 52.2292 272.521 52.7917 272.438 53.25C272.312 53.9583 271.938 54.8125 271.312 55.8125C270.729 56.8125 269.979 57.7917 269.062 58.75C268.188 59.6667 267.167 60.4583 266 61.125C264.875 61.7917 263.688 62.125 262.438 62.125C261.562 62.125 260.708 61.8542 259.875 61.3125C259.083 60.7708 258.396 60.1458 257.812 59.4375C257.271 58.6875 256.854 57.9583 256.562 57.25C256.312 56.5417 256.292 56 256.5 55.625C256.75 55.125 256.979 54.7292 257.188 54.4375C257.396 54.1458 257.708 53.8125 258.125 53.4375C258.292 53.3125 258.5 53.1667 258.75 53C258.958 52.875 259.25 52.75 259.625 52.625C260 52.5 260.438 52.3542 260.938 52.1875C261.354 53.4792 261.729 54.5 262.062 55.25C262.396 55.9583 262.667 56.5208 262.875 56.9375C263.125 57.3958 263.354 57.7083 263.562 57.875ZM300.312 44.1875C300.479 43.9375 300.688 43.7917 300.938 43.75C301.229 43.6667 301.458 43.6875 301.625 43.8125C301.792 43.9375 301.875 44.1458 301.875 44.4375C301.917 44.7292 301.812 45.125 301.562 45.625C300.729 47.2083 299.625 48.9167 298.25 50.75C296.917 52.5833 295.5 54.3125 294 55.9375C292.5 57.5208 291.042 58.8333 289.625 59.875C288.208 60.9167 287.021 61.4375 286.062 61.4375C284.688 61.4375 283.542 61.1667 282.625 60.625C281.708 60.0833 280.979 59.4167 280.438 58.625C279.938 57.8333 279.583 56.9792 279.375 56.0625C279.167 55.1042 279.104 54.2292 279.188 53.4375C279.229 52.7708 279.375 51.5833 279.625 49.875C279.875 48.125 280.208 46.125 280.625 43.875C281.042 41.5833 281.5 39.1458 282 36.5625C282.542 33.9375 283.104 31.4167 283.688 29C282.979 29.0833 282.271 29.1667 281.562 29.25C280.854 29.3333 280.208 29.375 279.625 29.375C278.292 29.375 277.042 29.2292 275.875 28.9375C274.667 28.6042 273.771 28.2917 273.188 28C272.854 27.8333 272.708 27.6042 272.75 27.3125C272.792 26.9792 272.917 26.6667 273.125 26.375C273.333 26.0417 273.604 25.7708 273.938 25.5625C274.229 25.3125 274.5 25.1875 274.75 25.1875C275.542 25.2708 276.396 25.3542 277.312 25.4375C278.229 25.4792 279.229 25.4792 280.312 25.4375C281.104 25.3958 281.854 25.3333 282.562 25.25C283.312 25.1667 284.042 25.0625 284.75 24.9375C285.292 22.9375 285.812 21.2083 286.312 19.75C286.854 18.25 287.333 17.2083 287.75 16.625C287.875 16.4167 288.146 16.25 288.562 16.125C289.021 15.9583 289.5 15.8542 290 15.8125C290.5 15.7292 290.979 15.7292 291.438 15.8125C291.896 15.8542 292.229 16 292.438 16.25C292.646 16.5833 292.729 17.4375 292.688 18.8125C292.646 20.1875 292.417 21.9375 292 24.0625C293.75 24.0625 295.292 24.1667 296.625 24.375C298 24.5417 299.167 24.75 300.125 25C301.083 25.2083 301.854 25.4375 302.438 25.6875C303.021 25.8958 303.458 26.0417 303.75 26.125C304.042 26.2083 304.188 26.4167 304.188 26.75C304.229 27.0833 304.167 27.4375 304 27.8125C303.875 28.1458 303.646 28.4375 303.312 28.6875C302.979 28.9375 302.604 29.0208 302.188 28.9375C301.771 28.8958 301.292 28.8125 300.75 28.6875C300.25 28.5625 299.625 28.4583 298.875 28.375C298.167 28.2917 297.312 28.2083 296.312 28.125C295.312 28.0417 294.146 28 292.812 28C292.562 28 292.271 28.0208 291.938 28.0625C291.646 28.0625 291.333 28.0625 291 28.0625C290.833 28.7292 290.667 29.3958 290.5 30.0625C290.375 30.6875 290.188 31.3542 289.938 32.0625C289.396 33.7292 288.771 35.5417 288.062 37.5C287.438 39.2083 286.688 41.1667 285.812 43.375C284.938 45.5833 283.958 47.9375 282.875 50.4375C282.625 52.2292 282.646 53.6042 282.938 54.5625C283.271 55.4792 283.667 56.1458 284.125 56.5625C284.667 57.0208 285.333 57.2708 286.125 57.3125C286.75 57.3958 287.5 57.1875 288.375 56.6875C289.292 56.1458 290.229 55.4375 291.188 54.5625C292.146 53.6875 293.104 52.7292 294.062 51.6875C295.062 50.6458 295.979 49.625 296.812 48.625C297.646 47.625 298.375 46.7292 299 45.9375C299.625 45.1042 300.062 44.5208 300.312 44.1875Z" fill="black"/>
</svg>
