<svg width="22" height="22" viewBox="0 0 22 22" fill="none" xmlns="http://www.w3.org/2000/svg">
<path d="M14.3212 7.92343L13.9018 17.154M8.09818 17.154L7.67879 7.92343M19.7612 4.63121C20.1758 4.68454 20.5879 4.74095 21 4.80146M19.7612 4.63223L18.4667 18.8698C18.4138 19.4495 18.1043 19.991 17.6 20.3859C17.0957 20.7809 16.4338 21.0002 15.7467 21H6.25333C5.56618 21.0002 4.90427 20.7809 4.39998 20.3859C3.89568 19.991 3.58617 19.4495 3.53333 18.8698L2.23879 4.63121M19.7612 4.63121C18.3623 4.45225 16.9561 4.31644 15.5455 4.22404M1 4.80043C1.41212 4.73992 1.82424 4.68351 2.23879 4.63121M2.23879 4.63121C3.63774 4.45226 5.04392 4.31644 6.45455 4.22404M15.5455 4.22404V3.28458C15.5455 2.07435 14.4424 1.06515 13.0121 1.0272C11.671 0.990933 10.329 0.990933 8.98788 1.0272C7.55758 1.06515 6.45455 2.07538 6.45455 3.28458V4.22404M15.5455 4.22404C12.5197 4.02617 9.48034 4.02617 6.45455 4.22404" stroke="#545454" stroke-width="2" stroke-linecap="round" stroke-linejoin="round"/>
</svg>
